<svg width="350" height="50" viewBox="0 0 350 50" fill="none" xmlns="http://www.w3.org/2000/svg">
<g clip-path="url(#clip0_166_6)">
<path d="M25.3496 50.0003H23.6108C23.559 49.9898 23.5073 49.9793 23.4555 49.9793C22.7517 49.9165 22.0376 49.8851 21.3337 49.8013C19.4604 49.5605 17.6491 49.0893 15.8896 48.3877C13.4469 47.4139 11.2216 46.0527 9.17232 44.3878C6.64688 42.3355 4.57685 39.8853 3.02433 36.9848C1.85476 34.7964 1.04745 32.4823 0.550646 30.053C0.240141 28.5138 0.0227882 26.9746 0.00208785 25.4039C-0.0186124 23.8751 0.13664 22.3569 0.385043 20.849C0.788699 18.3988 1.52356 16.0429 2.62068 13.823C4.16285 10.7236 6.28463 8.0849 8.88252 5.84411C11.8323 3.29966 15.2168 1.59289 18.9843 0.692389C19.9675 0.451556 20.9611 0.304963 21.9548 0.200253C22.8449 0.095543 23.7453 0.0117751 24.6458 0.00025704C25.6498 -0.0102139 26.6537 0.0630829 27.6577 0.188735C29.3241 0.398154 30.949 0.743697 32.5326 1.27772C35.4203 2.24105 38.0285 3.71746 40.3677 5.66506C43.4727 8.24092 45.8532 11.3822 47.4265 15.1308C48.5443 17.7905 49.2067 20.5548 49.3826 23.4448C49.393 23.6752 49.4137 23.916 49.4344 24.1359V25.8426C49.4344 25.895 49.4137 25.9474 49.4137 25.9997C49.3723 27.0782 49.2584 28.1358 49.0825 29.1934C48.6788 31.5912 47.944 33.8844 46.8779 36.0519C45.284 39.3188 43.0691 42.0936 40.2849 44.3972C37.8836 46.3867 35.2133 47.8736 32.2428 48.816C30.2556 49.4442 28.2062 49.7898 26.1259 49.9259C25.8671 49.9573 25.6084 49.9783 25.3496 49.9992V50.0003ZM0.975002 24.0217C0.985352 26.807 1.17165 28.6604 1.60636 30.4928C2.94153 36.1367 5.89132 40.723 10.4557 44.2307C13.9955 46.9532 18.001 48.5029 22.4309 48.9427C23.8592 49.0893 25.2875 49.0893 26.7158 48.9532C28.3511 48.8066 29.9554 48.4924 31.5286 48.0317C34.6026 47.1207 37.4075 45.6757 39.8709 43.5815C42.7172 41.1523 44.8907 38.2099 46.4432 34.7859C47.9647 31.4457 48.565 27.9169 48.4718 24.2521C48.4718 24.1369 48.4304 24.095 48.3166 24.095H46.0913C45.9671 24.095 45.9257 24.0636 45.9153 23.9275C45.9153 23.7076 45.8843 23.4877 45.8636 23.2783C45.7394 21.76 45.4703 20.2627 45.0459 18.8072C44.1144 15.5926 42.4687 12.7864 40.2124 10.3466C38.1217 8.09538 35.6894 6.33625 32.8638 5.15303C30.949 4.35723 28.9618 3.87557 26.9021 3.63474C26.7883 3.62426 26.7572 3.66615 26.7572 3.78133V5.03785C26.7572 5.14256 26.7883 5.18444 26.9021 5.19491C27.637 5.32056 28.3718 5.42527 29.086 5.59281C31.5079 6.14777 33.7746 7.09016 35.824 8.52469C38.8151 10.6084 41.0197 13.3623 42.5929 16.6502C43.6694 18.891 44.2593 21.2574 44.3835 23.7495C44.456 25.0584 44.3835 26.3672 44.2076 27.6656C43.9902 29.2468 43.6073 30.7755 43.0484 32.2624C40.2538 39.613 33.2675 44.6182 25.4117 44.8904C23.352 44.9637 21.3234 44.7124 19.3465 44.1365C11.3045 41.8119 5.58082 34.587 5.10471 26.1578C4.98051 24.0113 5.20821 21.8961 5.74642 19.8124C7.6198 12.6084 13.1985 7.57183 19.3983 5.80223C20.5161 5.4881 21.6546 5.27868 22.8035 5.19491C22.9173 5.18444 22.9691 5.21585 22.9587 5.34151V5.95929C22.9587 6.064 22.9173 6.10589 22.8035 6.11636C21.5614 6.22107 20.3401 6.45143 19.1499 6.82839C15.8378 7.87548 13.0329 9.72885 10.7248 12.3466C7.96135 15.5088 6.39848 19.2051 6.05693 23.4144C5.92237 25.0688 6.01552 26.7128 6.29498 28.3358C6.65723 30.3986 7.31964 32.3566 8.34431 34.1891C10.3729 37.8225 13.271 40.5031 17.0074 42.2622C18.5703 42.9952 20.2159 43.4768 21.9237 43.6967C22.0376 43.7072 22.0893 43.6967 22.0893 43.5606C22.0893 43.1418 22.0893 42.7334 22.0997 42.3146C22.0997 42.1575 22.0479 42.0842 21.8927 42.0423C21.7478 42.0109 21.6028 41.99 21.4579 41.9585C19.6053 41.5921 17.8457 40.9743 16.2311 39.9795C13.8816 38.5345 11.9565 36.6288 10.4247 34.3252C8.85147 31.9587 8.00275 29.3096 7.8475 26.4301C7.75435 24.7024 7.9096 23.0061 8.28221 21.3307C9.09987 17.5716 10.9629 14.4408 13.8713 11.9696C16.6451 9.61367 19.8537 8.3048 23.4659 8.01161C25.153 7.86501 26.8297 7.99066 28.4857 8.35715C32.0462 9.16341 35.058 10.933 37.48 13.7078C40.1296 16.7339 41.5579 20.2941 41.7753 24.3359C41.8684 25.9798 41.7028 27.6133 41.3199 29.2154C40.3987 32.9744 38.4425 36.0843 35.472 38.5345C33.2985 40.3251 30.8145 41.4769 28.0717 42.0214C27.5852 42.1156 27.0884 42.1784 26.5916 42.2517C26.4674 42.2727 26.426 42.2308 26.426 42.1051C26.4364 41.8957 26.426 41.6758 26.426 41.4664C26.426 41.3617 26.4674 41.3198 26.5709 41.3093C26.8814 41.2675 27.1816 41.2256 27.4921 41.1732C29.262 40.8591 30.9594 40.2937 32.543 39.4246C34.9545 38.0843 36.8486 36.1995 38.3494 33.8854C39.6742 31.7493 40.5022 29.4457 40.7506 26.9327C40.8748 25.7076 40.8438 24.4825 40.7092 23.2574C40.554 21.8752 40.2435 20.5454 39.7363 19.247C37.5628 13.5612 32.3256 9.56131 26.3225 8.99588C24.4802 8.81787 22.6586 8.954 20.8783 9.40425C15.341 10.8074 10.8904 15.1842 9.35862 20.7443C9.20337 21.2993 9.11022 21.8647 8.99637 22.4197C8.97567 22.5244 9.00672 22.5767 9.12057 22.5663H9.31722C9.68983 22.5663 10.0521 22.5663 10.4247 22.5767C10.6731 22.5767 10.7455 22.5244 10.7973 22.2836C10.7973 22.2521 10.8076 22.2207 10.818 22.1893C11.2941 19.7915 12.2981 17.6344 13.8609 15.7706C16.3243 12.8283 19.4604 11.1424 23.2382 10.6922C24.8217 10.5037 26.4053 10.6084 27.9682 10.9749C33.9816 12.3675 38.4529 17.6135 38.9497 23.8437C39.1153 25.9798 38.8358 28.0531 38.0906 30.053C35.6273 36.723 28.7031 40.6078 21.8409 39.1104C17.5663 38.1785 14.3681 35.7178 12.236 31.854C11.3148 30.1892 10.8387 28.3777 10.5696 26.4929C10.5592 26.3987 10.6006 26.3568 10.6834 26.3568H11.056C11.3252 26.3463 11.3769 26.4091 11.4183 26.6709C11.5115 27.2468 11.5839 27.8227 11.7288 28.3881C13.6643 35.8749 20.9508 39.8539 27.7819 38.2728C33.2157 37.0162 37.304 32.4509 38.0699 26.8594C38.3183 25.0688 38.2252 23.2992 37.7594 21.5611C36.8693 18.2522 35.058 15.6031 32.2532 13.6869C30.4626 12.4618 28.4857 11.7393 26.3329 11.467C25.0908 11.31 23.8592 11.3414 22.6275 11.5403C21.0543 11.7916 19.5846 12.3466 18.1977 13.1319C16.138 14.3047 14.4405 15.8544 13.2296 17.9276C12.2877 19.5506 11.7185 21.2993 11.4494 23.1526C11.3873 23.5505 11.3666 23.5715 10.9732 23.5715H8.98602C8.86182 23.5715 8.81006 23.6134 8.81006 23.739C8.81006 23.8856 8.79971 24.0427 8.78936 24.1893C8.72726 25.4249 8.77901 26.6395 8.97567 27.8541C9.32757 30.0426 10.1142 32.053 11.3148 33.9064C12.6914 36.032 14.4198 37.8016 16.5934 39.1C18.5599 40.2727 20.7024 40.9533 22.9484 41.2779C23.0829 41.2989 23.114 41.3512 23.114 41.4769V43.6862C23.114 43.791 23.1243 43.8538 23.2485 43.8643C24.2214 43.9585 25.2047 43.969 26.1776 43.8957C27.668 43.7805 29.1274 43.5082 30.5454 43.0161C35.0994 41.4455 38.6185 38.5869 41.0197 34.3461C42.5516 31.6551 43.3071 28.7337 43.4624 25.6447C43.5555 23.7181 43.3485 21.8228 42.8414 19.9695C42.2203 17.6973 41.1646 15.645 39.7881 13.7497C37.7284 10.9121 35.1098 8.76552 31.8598 7.45665C29.9554 6.68179 27.9785 6.25248 25.9396 6.064C25.7533 6.05353 25.7429 6.04306 25.7429 5.84411V3.73945C25.7429 3.61379 25.7015 3.58238 25.5877 3.57191C23.5797 3.44626 21.5925 3.64521 19.6363 4.14781C16.2104 5.02738 13.1571 6.65038 10.5489 9.05871C6.13973 13.1529 3.83164 18.2627 3.55219 24.3045C3.43834 26.6814 3.76954 29.0269 4.4837 31.2991C6.19148 36.7754 9.51388 40.9638 14.4612 43.7805C17.38 45.4454 20.5575 46.2831 23.8902 46.4611C26.0017 46.5867 28.082 46.3564 30.121 45.8014C32.5223 45.1417 34.7268 44.0527 36.7762 42.6287C40.792 39.8434 43.5348 36.1157 44.9631 31.4038C45.4082 29.9378 45.7083 28.43 45.8843 26.9013C45.8946 26.7966 45.9361 26.7547 46.0396 26.7547H46.6192C46.7848 26.7547 46.8055 26.7756 46.7848 26.9431C46.733 27.4353 46.6813 27.9274 46.6088 28.4196C46.2673 30.7546 45.5634 32.9744 44.5077 35.0791C40.8024 42.4716 33.4848 47.1731 25.2979 47.4035C23.2692 47.4558 21.2613 47.2359 19.2948 46.7333C14.1507 45.4035 10.0003 42.5659 6.87459 38.2309C4.08005 34.3775 2.66208 30.0321 2.58963 25.2468C2.55857 23.1003 2.85873 20.9956 3.41764 18.9328C4.2146 15.9696 5.56012 13.2785 7.4956 10.9016C9.33792 8.63987 11.5529 6.81791 14.0576 5.36245C16.8521 3.72897 19.864 2.77611 23.0933 2.57717C24.6665 2.48293 26.2397 2.5667 27.7922 2.818C29.8209 3.1426 31.7874 3.69756 33.6815 4.50383C36.6727 5.78129 39.2499 7.64512 41.3923 10.1267C44.0109 13.1633 46.3397 18.1161 46.7434 22.4092C46.7537 22.5767 46.7848 22.7548 46.8158 22.9223C46.8365 23.0375 46.909 23.1003 47.0435 23.1003C47.4058 23.1003 47.7784 23.1003 48.1303 23.1108C48.3166 23.1108 48.4028 23.013 48.389 22.8176C48.2959 21.7914 48.1613 20.7653 47.9336 19.7601C46.6813 14.2418 43.866 9.70791 39.519 6.17918C35.5756 3.00648 31.0836 1.29971 26.0534 1.00652C23.9213 0.880867 21.8099 1.03793 19.7295 1.49865C15.9413 2.32586 12.5258 3.96981 9.56563 6.50379C3.94549 11.2995 1.13025 17.4878 0.975002 24.0217Z" fill="#3B3C40"/>
</g>
<g clip-path="url(#clip1_166_6)">
<path d="M349.669 45.0618H322.16C321.994 45.0618 321.848 44.9367 321.848 44.7539V5.86363C321.848 5.70002 321.975 5.55566 322.16 5.55566H348.947C349.113 5.55566 349.259 5.68077 349.259 5.86363V9.80943C349.259 9.97304 349.133 10.1174 348.947 10.1174H327.295C327.13 10.1174 326.983 10.2425 326.983 10.4254V22.0414C326.983 22.205 327.11 22.3494 327.295 22.3494H346.005C346.17 22.3494 346.316 22.4745 346.316 22.6574V26.6417C346.316 26.8053 346.19 26.9496 346.005 26.9496H327.315C327.149 26.9496 327.003 27.0747 327.003 27.2576V40.144C327.003 40.3076 327.13 40.452 327.315 40.452H349.688C349.854 40.452 350 40.5771 350 40.7599V44.7924C349.98 44.9175 349.834 45.0522 349.669 45.0522V45.0618Z" fill="#3B3C40"/>
<path d="M169.552 36.8333C172.709 26.5069 175.876 16.1997 179.043 5.84434C179.082 5.71923 179.209 5.62299 179.336 5.62299H184.071C184.198 5.62299 184.325 5.7096 184.364 5.84434C187.657 16.1997 190.961 26.5839 194.371 37.2568C194.459 37.5263 194.858 37.5263 194.956 37.2568C195.014 37.0739 195.063 36.9103 195.122 36.7467C197.928 26.7667 200.754 16.7867 203.541 6.79711C203.794 5.87321 204.164 5.48825 205.178 5.57487C206.396 5.66148 207.624 5.61336 208.929 5.61336C209.134 5.61336 209.28 5.81547 209.222 5.99832C208.238 9.22233 207.312 12.3116 206.357 15.3913C203.443 24.9093 200.51 34.4562 197.606 43.9935C197.373 44.7923 197.061 45.1195 196.184 45.0714C194.946 44.9944 193.689 45.0329 192.315 45.0522C192.189 45.0522 192.062 44.9656 192.023 44.8308C188.729 34.4562 185.406 24.0528 182.113 13.6782H181.314C178.127 24.0335 174.931 34.3985 171.725 44.8308C171.686 44.9559 171.559 45.0522 171.433 45.0522C169.922 45.0522 168.412 45.0907 166.911 45.0137C166.619 44.9944 166.22 44.4651 166.112 44.0994C163.637 36.1212 161.191 28.1333 158.736 20.1359C157.313 15.5067 155.89 10.8873 154.468 6.25817C154.448 6.18117 154.429 6.11381 154.409 6.03682C154.351 5.85396 154.497 5.65186 154.702 5.65186H159.564C159.691 5.65186 159.817 5.73847 159.856 5.87321C162.809 16.1804 165.762 26.5069 168.714 36.843C169.133 36.8237 169.094 36.8237 169.533 36.8237L169.552 36.8333Z" fill="#3B3C40"/>
<path d="M271.499 5.87333C271.499 5.70973 271.625 5.56537 271.81 5.56537C275.962 5.55574 280.054 5.54612 284.127 5.55574C286.885 5.57499 289.662 5.46913 292.4 5.77709C300.196 6.69137 303.119 12.1096 302.418 18.6058C301.882 23.7161 299.212 26.5263 294.145 27.7485C293.96 27.787 293.774 27.8351 293.55 27.8736C293.346 27.9313 293.238 28.1623 293.365 28.3259C296.902 33.7249 300.401 39.0758 304.016 44.5807C304.143 44.7828 303.996 45.0523 303.753 45.0523C301.814 45.0523 299.991 45.0715 298.179 45.0138C297.896 44.9946 297.585 44.523 297.38 44.1958C294.125 39.2298 290.88 34.2735 287.655 29.2883C287.226 28.6339 286.505 28.2489 285.716 28.2489C282.841 28.3067 279.996 28.2682 277.014 28.2682C276.848 28.2682 276.702 28.3933 276.702 28.5762V44.6866C276.702 44.8502 276.575 44.9945 276.39 44.9945H271.781C271.616 44.9945 271.469 44.8694 271.469 44.6866V5.87333H271.508H271.499ZM276.741 23.591C276.741 23.7546 276.868 23.8989 277.053 23.8989C280.795 23.8989 284.459 23.9182 288.123 23.8797C289.156 23.8797 290.218 23.8219 291.251 23.6583C293.248 23.3504 295.08 22.6574 296.23 20.8674C298.842 16.7965 296.513 11.2339 291.748 10.2522C290.802 10.0501 289.818 9.99237 288.863 9.99237C285.199 9.95387 281.545 9.97312 277.881 9.97312H277.033C276.868 9.97312 276.722 10.0982 276.722 10.2811V23.5813H276.741V23.591Z" fill="#3B3C40"/>
<path d="M62.5871 5.97902C62.5871 5.81541 62.7138 5.67106 62.8989 5.67106C69.8272 5.67106 76.6873 5.36309 83.4987 5.75767C90.1834 6.14263 94.0422 11.1086 93.5745 17.7106C93.1652 23.4176 90.5732 26.4298 84.629 27.8349C84.4244 27.8927 84.3367 28.1237 84.4439 28.2873C87.9811 33.6959 91.4794 39.0564 95.0946 44.5709C95.2213 44.773 95.0751 45.0425 94.8315 45.0425C92.9021 45.0425 91.1676 45.081 89.4038 45.004C89.092 44.9848 88.7022 44.5517 88.4781 44.1956C85.2722 39.3163 82.0468 34.4369 78.9188 29.4999C78.2659 28.499 77.6033 28.1429 76.4145 28.1814C73.6568 28.268 70.8796 28.2199 68.0245 28.2199C67.8588 28.2199 67.7127 28.345 67.7127 28.5279V44.6672C67.7127 44.8308 67.586 44.9751 67.4008 44.9751H62.8599C62.6943 44.9751 62.5481 44.85 62.5481 44.6672V5.97902H62.5871ZM67.8101 10.2232V23.533C67.8101 23.6967 67.9368 23.841 68.1219 23.841C70.1195 23.841 72.0295 23.8603 73.9589 23.841C76.7165 23.8025 79.484 23.8603 82.2222 23.6004C84.7947 23.3598 86.9677 22.2627 87.8934 19.6161C89.6182 14.6983 86.5584 10.1077 81.3159 9.94407C76.9796 9.79972 72.6239 9.90558 68.1219 9.90558C67.9368 9.90558 67.8101 10.0307 67.8101 10.2135V10.2232Z" fill="#3B3C40"/>
<path d="M113.609 9.89605V5.86363C113.609 5.70002 113.736 5.55566 113.921 5.55566H140.757C140.923 5.55566 141.079 5.68077 141.079 5.86363V44.7539C141.079 44.9175 140.952 45.0618 140.767 45.0618H113.239C113.073 45.0618 112.927 44.9367 112.927 44.7539V40.8562C112.927 40.6926 113.054 40.5482 113.239 40.5482H135.622C135.788 40.5482 135.934 40.4231 135.934 40.2403V27.2961C135.934 27.1325 135.807 26.9881 135.622 26.9881H116.883C116.718 26.9881 116.571 26.863 116.571 26.6802V22.6862C116.571 22.5226 116.698 22.3783 116.883 22.3783H135.622C135.788 22.3783 135.934 22.2532 135.934 22.0703V10.4446C135.934 10.281 135.807 10.1366 135.622 10.1366H113.921C113.755 10.2136 113.609 10.0597 113.609 9.89605Z" fill="#3B3C40"/>
<path d="M222.62 6.01761C222.494 5.81551 222.64 5.56529 222.874 5.56529C224.667 5.56529 226.294 5.52679 227.921 5.60378C228.282 5.62303 228.74 6.02724 228.954 6.3737C232.014 11.3011 235.054 16.2382 238.085 21.1849C238.231 21.4063 238.377 21.6372 238.533 21.8778C238.64 22.0607 238.913 22.0607 239.04 21.8778C239.225 21.618 239.361 21.387 239.507 21.1657C242.567 16.2382 245.637 11.3204 248.677 6.39294C249.057 5.76739 249.456 5.55566 250.158 5.57491C251.678 5.63266 253.179 5.59416 254.865 5.59416C255.099 5.59416 255.245 5.85401 255.118 6.04648C254.972 6.26783 254.865 6.46994 254.718 6.67204C250.47 13.1586 246.202 19.6162 241.982 26.122C241.583 26.7475 241.369 27.4597 241.369 28.1815C241.33 33.388 241.349 38.5946 241.349 43.7915V44.7635C241.349 44.9271 241.222 45.0715 241.037 45.0715H236.37C236.204 45.0715 236.058 44.9464 236.058 44.7635V43.8685C236.058 38.6234 236.077 33.388 236.038 28.143C236.038 27.4501 235.843 26.7572 235.463 26.1701C231.361 19.6836 227.2 13.2259 223.059 6.75865C222.893 6.51806 222.766 6.30633 222.61 6.02724L222.62 6.01761Z" fill="#3B3C40"/>
</g>
<defs>
<clipPath id="clip0_166_6">
<rect width="49.4344" height="50" fill="white"/>
</clipPath>
<clipPath id="clip1_166_6">
<rect width="287.452" height="39.5062" fill="white" transform="translate(62.5481 5.55566)"/>
</clipPath>
</defs>
</svg>
