<?xml version="1.0" encoding="utf-8"?>
<!-- Generator: Adobe Illustrator 20.0.0, SVG Export Plug-In . SVG Version: 6.00 Build 0)  -->
<svg version="1.1" id="Layer_1" xmlns="http://www.w3.org/2000/svg" xmlns:xlink="http://www.w3.org/1999/xlink" x="0px" y="0px"
	 viewBox="0 0 201 82" style="enable-background:new 0 0 201 82;" xml:space="preserve">
<style type="text/css">
	.st0{fill:#B44628;}
	.st1{filter:url(#Adobe_OpacityMaskFilter);}
	.st2{fill:#FFFFFF;}
	.st3{mask:url(#mask-2);fill:#B44628;}
</style>
<title>Group 17 Copy 3</title>
<desc>Created with Sketch.</desc>
<g id="Symbols">
	<g id="footer" transform="translate(-227.000000, -62.000000)">
		<g id="Group-17-Copy-3" transform="translate(227.000000, 62.000000)">
			<path id="Fill-2" class="st0" d="M61.8,41.9c0,7.3-4.7,11-11.6,11c-6.8,0-11.6-3.7-11.6-11V26H44v15.6c0,4.3,2.5,6.3,6.2,6.3
				c3.7,0,6.2-1.9,6.2-6.3V26h5.4V41.9z"/>
			<path id="Fill-4" class="st0" d="M82.1,41.5v6.4l6,0c3,0,4.8-0.7,4.8-3.2c0-2.5-1.9-3.2-4.8-3.2H82.1z M82.1,30.7v6.2h5.5
				c2.7,0,4.7-0.5,4.7-3.1c0-2.5-2.1-3.1-4.8-3.1H82.1z M87.8,26c6.3,0,10.2,2.3,10.2,7.3c0,2.7-1.6,4.8-3.9,5.6
				c2.5,0.8,4.5,3.1,4.5,5.9c0,5.1-3.7,7.6-10.1,7.6H76.8V26H87.8z"/>
			<path id="Fill-6" class="st0" d="M117.9,41.5v6.4l6,0c3,0,4.8-0.7,4.8-3.2c0-2.5-1.9-3.2-4.8-3.2H117.9z M117.9,30.7v6.2h5.5
				c2.7,0,4.7-0.5,4.7-3.1c0-2.5-2.1-3.1-4.8-3.1H117.9z M123.5,26c6.3,0,10.2,2.3,10.2,7.3c0,2.7-1.6,4.8-3.9,5.6
				c2.5,0.8,4.5,3.1,4.5,5.9c0,5.1-3.7,7.6-10.1,7.6h-11.6V26H123.5z"/>
			<polygon id="Fill-8" class="st0" points="167.8,52.5 148.3,52.5 148.3,26 153.6,26 153.6,47.5 167.8,47.5 			"/>
			<polygon id="Fill-10" class="st0" points="200.7,52.5 180.7,52.5 180.7,26 200.6,26 200.6,30.8 186,30.8 186,36.7 199.9,36.7 
				199.9,41.5 186,41.5 186,47.6 200.7,47.6 			"/>
			<g id="Group-14" transform="translate(44.066276, 69.654469)">
				<g id="Clip-13">
				</g>
				<defs>
					<filter id="Adobe_OpacityMaskFilter" filterUnits="userSpaceOnUse" x="0.3" y="0.1" width="11.8" height="11.6">
						<feColorMatrix  type="matrix" values="1 0 0 0 0  0 1 0 0 0  0 0 1 0 0  0 0 0 1 0"/>
					</filter>
				</defs>
				<mask maskUnits="userSpaceOnUse" x="0.3" y="0.1" width="11.8" height="11.6" id="mask-2">
					<g class="st1">
						<polygon id="path-1" class="st2" points="0.3,11.7 12.1,11.7 12.1,0.1 0.3,0.1 						"/>
					</g>
				</mask>
				<path id="Fill-12" class="st3" d="M6.2,0.1c-3.3,0-5.9,2.6-5.9,5.8c0,3.2,2.6,5.8,5.9,5.8c3.2,0,5.9-2.6,5.9-5.8
					C12.1,2.7,9.4,0.1,6.2,0.1"/>
			</g>
			<path id="Fill-15" class="st0" d="M122.2,0.3c-2.4,0-4.3,1.9-4.3,4.3c0,2.3,1.9,4.3,4.3,4.3c2.4,0,4.3-1.9,4.3-4.3
				C126.6,2.2,124.6,0.3,122.2,0.3"/>
			<polygon id="Fill-1" class="st0" points="18.3,26 18.3,36.7 5.4,36.7 5.4,26 0.1,26 0.1,52.5 5.4,52.5 5.4,41.6 18.3,41.6 
				18.3,52.5 23.7,52.5 23.7,26 			"/>
		</g>
	</g>
</g>
</svg>
