<svg xmlns="http://www.w3.org/2000/svg" viewBox="0 0 240 70">
  <!-- NBC Peacock - geometric teardrop rotation -->
  <g transform="translate(42, 55)">
    <path d="M0,0 C-10,-14 -10,-34 0,-46 C10,-34 10,-14 0,0Z" fill="#FBBE28" transform="rotate(-62.5)"/>
    <path d="M0,0 C-10,-14 -10,-34 0,-46 C10,-34 10,-14 0,0Z" fill="#F68E1E" transform="rotate(-37.5)"/>
    <path d="M0,0 C-10,-14 -10,-34 0,-46 C10,-34 10,-14 0,0Z" fill="#E11A2C" transform="rotate(-12.5)"/>
    <path d="M0,0 C-10,-14 -10,-34 0,-46 C10,-34 10,-14 0,0Z" fill="#6E4B9E" transform="rotate(12.5)"/>
    <path d="M0,0 C-10,-14 -10,-34 0,-46 C10,-34 10,-14 0,0Z" fill="#0078BF" transform="rotate(37.5)"/>
    <path d="M0,0 C-10,-14 -10,-34 0,-46 C10,-34 10,-14 0,0Z" fill="#00A651" transform="rotate(62.5)"/>
    <circle cx="0" cy="-6" r="3.5" fill="#000"/>
  </g>
  <!-- NBC Text -->
  <text x="90" y="52" font-family="'Arial Black', 'Helvetica Neue', Arial, sans-serif" font-size="46" font-weight="900" letter-spacing="4" fill="#000">NBC</text>
</svg>